<svg width="14" height="16" viewBox="0 0 14 16" fill="none" xmlns="http://www.w3.org/2000/svg">
<mask id="path-1-outside-1_1032_63" maskUnits="userSpaceOnUse" x="0" y="5.64484" width="8" height="10" fill="black">
<rect fill="white" y="5.64484" width="8" height="10"/>
<path fill-rule="evenodd" clip-rule="evenodd" d="M1 10.6383V11.0065C2.63962 11.1236 3.95054 12.8523 4.0194 15H4.38061C4.44947 12.8524 5.76024 11.1238 7.39972 11.0065V10.6383C5.76025 10.521 4.4495 8.79244 4.38061 6.64484H4.0194C3.95052 8.79257 2.63961 10.5212 1 10.6383Z"/>
</mask>
<path fill-rule="evenodd" clip-rule="evenodd" d="M1 10.6383V11.0065C2.63962 11.1236 3.95054 12.8523 4.0194 15H4.38061C4.44947 12.8524 5.76024 11.1238 7.39972 11.0065V10.6383C5.76025 10.521 4.4495 8.79244 4.38061 6.64484H4.0194C3.95052 8.79257 2.63961 10.5212 1 10.6383Z" fill="#EDEDFF"/>
<path d="M1 11.0065H0.82223C0.82223 11.0998 0.894307 11.1772 0.987335 11.1838L1 11.0065ZM1 10.6383L0.987335 10.461C0.894307 10.4676 0.82223 10.545 0.82223 10.6383H1ZM4.0194 15L3.84173 15.0057C3.8448 15.1016 3.92344 15.1778 4.0194 15.1778V15ZM4.38061 15V15.1778C4.47658 15.1778 4.55522 15.1016 4.55829 15.0057L4.38061 15ZM7.39972 11.0065L7.41241 11.1839C7.50543 11.1772 7.57749 11.0998 7.57749 11.0065H7.39972ZM7.39972 10.6383H7.57749C7.57749 10.545 7.50543 10.4676 7.41241 10.461L7.39972 10.6383ZM4.38061 6.64484L4.55829 6.63914C4.55522 6.54323 4.47658 6.46707 4.38061 6.46707V6.64484ZM4.0194 6.64484V6.46707C3.92344 6.46707 3.8448 6.54323 3.84172 6.63914L4.0194 6.64484ZM1.17777 11.0065V10.6383H0.82223V11.0065H1.17777ZM4.19708 14.9943C4.12658 12.7955 2.77814 10.9553 1.01266 10.8292L0.987335 11.1838C2.5011 11.292 3.7745 12.909 3.84173 15.0057L4.19708 14.9943ZM4.38061 14.8223H4.0194V15.1778H4.38061V14.8223ZM4.55829 15.0057C4.62552 12.9091 5.89876 11.2922 7.41241 11.1839L7.38703 10.8292C5.62171 10.9555 4.27343 12.7957 4.20293 14.9943L4.55829 15.0057ZM7.22195 10.6383V11.0065H7.57749V10.6383H7.22195ZM4.20294 6.65054C4.27345 8.84917 5.62173 10.6893 7.38703 10.8156L7.41241 10.461C5.89878 10.3527 4.62554 8.7357 4.55829 6.63914L4.20294 6.65054ZM4.0194 6.82261H4.38061V6.46707H4.0194V6.82261ZM1.01266 10.8156C2.77813 10.6895 4.12656 8.8493 4.19708 6.65054L3.84172 6.63914C3.77448 8.73583 2.50109 10.3529 0.987335 10.461L1.01266 10.8156Z" fill="#EDEDFF" mask="url(#path-1-outside-1_1032_63)"/>
<mask id="path-3-outside-2_1032_63" maskUnits="userSpaceOnUse" x="5.88354" y="0" width="8" height="10" fill="black">
<rect fill="white" x="5.88354" width="8" height="10"/>
<path fill-rule="evenodd" clip-rule="evenodd" d="M6.88354 4.99351V5.36168C8.52312 5.47886 9.83398 7.20748 9.90284 9.35519H10.2641C10.333 7.20755 11.6438 5.47896 13.2833 5.36169V4.9935C11.6438 4.87623 10.333 3.14764 10.2641 1H9.90284C9.83398 3.14771 8.52312 4.87633 6.88354 4.99351Z"/>
</mask>
<path fill-rule="evenodd" clip-rule="evenodd" d="M6.88354 4.99351V5.36168C8.52312 5.47886 9.83398 7.20748 9.90284 9.35519H10.2641C10.333 7.20755 11.6438 5.47896 13.2833 5.36169V4.9935C11.6438 4.87623 10.333 3.14764 10.2641 1H9.90284C9.83398 3.14771 8.52312 4.87633 6.88354 4.99351Z" fill="#EDEDFF"/>
<path d="M6.88354 5.36168H6.70577C6.70577 5.45494 6.77785 5.53235 6.87087 5.539L6.88354 5.36168ZM6.88354 4.99351L6.87087 4.81619C6.77785 4.82284 6.70577 4.90025 6.70577 4.99351H6.88354ZM9.90284 9.35519L9.72516 9.36089C9.72824 9.4568 9.80688 9.53296 9.90284 9.53296V9.35519ZM10.2641 9.35519V9.53296C10.3601 9.53296 10.4387 9.4568 10.4418 9.36089L10.2641 9.35519ZM13.2833 5.36169L13.2959 5.53901C13.389 5.53235 13.461 5.45495 13.461 5.36169H13.2833ZM13.2833 4.9935H13.461C13.461 4.90024 13.389 4.82284 13.2959 4.81618L13.2833 4.9935ZM10.2641 1L10.4418 0.994303C10.4387 0.898391 10.3601 0.82223 10.2641 0.82223V1ZM9.90284 1V0.82223C9.80688 0.82223 9.72824 0.898391 9.72516 0.994303L9.90284 1ZM7.06131 5.36168V4.99351H6.70577V5.36168H7.06131ZM10.0805 9.34949C10.01 7.15075 8.66164 5.31053 6.89622 5.18436L6.87087 5.539C8.38459 5.64718 9.65794 7.26421 9.72516 9.36089L10.0805 9.34949ZM10.2641 9.17742H9.90284V9.53296H10.2641V9.17742ZM10.4418 9.36089C10.509 7.26428 11.7823 5.64728 13.2959 5.53901L13.2706 5.18437C11.5052 5.31065 10.1569 7.15081 10.0864 9.34949L10.4418 9.36089ZM13.1055 4.9935V5.36169H13.461V4.9935H13.1055ZM10.0864 1.0057C10.1569 3.20438 11.5052 5.04454 13.2706 5.17082L13.2959 4.81618C11.7823 4.70791 10.509 3.09091 10.4418 0.994303L10.0864 1.0057ZM9.90284 1.17777H10.2641V0.82223H9.90284V1.17777ZM6.89622 5.17083C8.66164 5.04466 10.01 3.20444 10.0805 1.0057L9.72516 0.994303C9.65794 3.09098 8.38459 4.70801 6.87087 4.81619L6.89622 5.17083Z" fill="#EDEDFF" mask="url(#path-3-outside-2_1032_63)"/>
</svg>
